<svg width="150" height="19" viewBox="0 0 150 19" fill="none" xmlns="http://www.w3.org/2000/svg">
<path d="M7.70566 18.0943C6.09655 18.0943 4.89792 17.7085 4.10979 16.9368C3.33807 16.1486 2.95221 14.9582 2.95221 13.3655V2.45474L6.6466 1.0755V13.4887C6.6466 14.0469 6.80259 14.4656 7.11456 14.7448C7.42653 15.0239 7.91091 15.1635 8.56769 15.1635C8.81398 15.1635 9.04385 15.1388 9.25731 15.0896C9.47076 15.0403 9.68422 14.9828 9.89767 14.9172V17.7249C9.68422 17.8398 9.38046 17.9302 8.98639 17.9958C8.60874 18.0615 8.18183 18.0943 7.70566 18.0943ZM0.612427 8.07022V5.26248H9.89767V8.07022H0.612427Z" fill="black"/>
<path d="M12.1118 17.8234V0.090332H15.8062V17.8234H12.1118ZM20.8552 17.8234V10.0406C20.8552 9.35095 20.6746 8.83373 20.3134 8.48892C19.9685 8.14411 19.4595 7.97171 18.7863 7.97171C18.2117 7.97171 17.6944 8.10306 17.2347 8.36577C16.7914 8.62849 16.4384 8.98972 16.1756 9.44946C15.9293 9.90921 15.8062 10.4511 15.8062 11.075L15.486 8.04559C15.8965 7.1261 16.4958 6.39543 17.284 5.85359C18.0885 5.29532 19.0737 5.01619 20.2395 5.01619C21.6351 5.01619 22.7024 5.41026 23.4413 6.1984C24.1802 6.97011 24.5496 8.01275 24.5496 9.32632V17.8234H20.8552Z" fill="black"/>
<path d="M33.2718 18.0697C31.8762 18.0697 30.6611 17.7988 29.6267 17.2569C28.5923 16.6987 27.7877 15.927 27.213 14.9418C26.6548 13.9566 26.3756 12.8237 26.3756 11.543C26.3756 10.2458 26.6548 9.11286 27.213 8.14411C27.7877 7.15894 28.5841 6.39543 29.6021 5.85359C30.6201 5.29532 31.8023 5.01619 33.1487 5.01619C34.4458 5.01619 35.5706 5.2789 36.5229 5.80433C37.4752 6.32975 38.2141 7.06042 38.7395 7.99634C39.265 8.93225 39.5277 10.0324 39.5277 11.2967C39.5277 11.5594 39.5195 11.8057 39.503 12.0355C39.4866 12.249 39.462 12.4542 39.4292 12.6513H28.543V10.213H36.449L35.8086 10.6563C35.8086 9.63829 35.5624 8.8912 35.0698 8.41503C34.5936 7.92245 33.9368 7.67615 33.0994 7.67615C32.1307 7.67615 31.3754 8.00454 30.8335 8.66133C30.3081 9.31811 30.0454 10.3033 30.0454 11.6168C30.0454 12.8976 30.3081 13.8499 30.8335 14.4738C31.3754 15.0978 32.1799 15.4098 33.2472 15.4098C33.8383 15.4098 34.3473 15.3112 34.7742 15.1142C35.2011 14.9172 35.5213 14.597 35.7348 14.1537H39.2075C38.797 15.3687 38.091 16.3292 37.0894 17.0353C36.1042 17.7249 34.8317 18.0697 33.2718 18.0697Z" fill="black"/>
<path d="M49.1448 17.8234C49.0463 17.4622 48.9724 17.0763 48.9232 16.6658C48.8903 16.2554 48.8739 15.7792 48.8739 15.2373H48.7754V9.30169C48.7754 8.79268 48.603 8.39861 48.2582 8.11948C47.9298 7.82393 47.4372 7.67615 46.7804 7.67615C46.1565 7.67615 45.6557 7.78288 45.278 7.99634C44.9168 8.20979 44.6787 8.52176 44.5638 8.93225H41.0418C41.206 7.7993 41.7889 6.86339 42.7905 6.12451C43.7921 5.38563 45.1631 5.01619 46.9036 5.01619C48.7097 5.01619 50.089 5.41847 51.0413 6.22303C51.9936 7.02758 52.4698 8.18516 52.4698 9.69576V15.2373C52.4698 15.6478 52.4944 16.0665 52.5437 16.4934C52.6094 16.9039 52.7079 17.3473 52.8392 17.8234H49.1448ZM44.7608 18.0697C43.5129 18.0697 42.5196 17.7577 41.7807 17.1338C41.0418 16.4934 40.6724 15.6478 40.6724 14.597C40.6724 13.4312 41.1075 12.4953 41.9777 11.7892C42.8644 11.0668 44.0958 10.5988 45.6721 10.3854L49.3419 9.86816V12.0109L46.2878 12.4789C45.6311 12.5774 45.1467 12.758 44.8347 13.0207C44.5227 13.2834 44.3667 13.6447 44.3667 14.1044C44.3667 14.5149 44.5145 14.8269 44.8101 15.0403C45.1056 15.2538 45.4997 15.3605 45.9923 15.3605C46.764 15.3605 47.4208 15.1552 47.9626 14.7448C48.5045 14.3179 48.7754 13.8253 48.7754 13.267L49.1202 15.2373C48.759 16.1733 48.2089 16.8793 47.47 17.3555C46.7312 17.8316 45.8281 18.0697 44.7608 18.0697Z" fill="black"/>
<path d="M60.71 18.0697C59.3965 18.0697 58.2389 17.7906 57.2373 17.2323C56.2357 16.6741 55.4476 15.9023 54.8729 14.9172C54.3146 13.932 54.0355 12.8073 54.0355 11.543C54.0355 10.2786 54.3146 9.15391 54.8729 8.16874C55.4476 7.18357 56.2357 6.41185 57.2373 5.85359C58.2389 5.29532 59.3965 5.01619 60.71 5.01619C61.8101 5.01619 62.7953 5.22143 63.6655 5.63192C64.5522 6.02599 65.2746 6.57605 65.8329 7.28208C66.4076 7.98812 66.777 8.81731 66.9412 9.76964H63.37C63.1894 9.16212 62.861 8.70237 62.3848 8.3904C61.9251 8.07843 61.3832 7.92245 60.7593 7.92245C60.1682 7.92245 59.651 8.07022 59.2076 8.36577C58.7807 8.66133 58.4523 9.08002 58.2225 9.62187C57.9926 10.1637 57.8776 10.8041 57.8776 11.543C57.8776 12.2818 57.9926 12.9222 58.2225 13.464C58.4523 14.0059 58.7807 14.4246 59.2076 14.7201C59.651 15.0157 60.1682 15.1635 60.7593 15.1635C61.3832 15.1635 61.9251 15.0075 62.3848 14.6955C62.861 14.3835 63.1894 13.9238 63.37 13.3163H66.9412C66.777 14.2686 66.4076 15.0978 65.8329 15.8038C65.2746 16.5099 64.5522 17.0681 63.6655 17.4786C62.7953 17.8727 61.8101 18.0697 60.71 18.0697Z" fill="black"/>
<path d="M74.6894 18.0697C73.2938 18.0697 72.0787 17.7988 71.0443 17.2569C70.0099 16.6987 69.2053 15.927 68.6306 14.9418C68.0724 13.9566 67.7932 12.8237 67.7932 11.543C67.7932 10.2458 68.0724 9.11286 68.6306 8.14411C69.2053 7.15894 70.0017 6.39543 71.0197 5.85359C72.0377 5.29532 73.2199 5.01619 74.5663 5.01619C75.8634 5.01619 76.9882 5.2789 77.9405 5.80433C78.8928 6.32975 79.6317 7.06042 80.1572 7.99634C80.6826 8.93225 80.9453 10.0324 80.9453 11.2967C80.9453 11.5594 80.9371 11.8057 80.9207 12.0355C80.9042 12.249 80.8796 12.4542 80.8468 12.6513H69.9606V10.213H77.8666L77.2263 10.6563C77.2263 9.63829 76.98 8.8912 76.4874 8.41503C76.0112 7.92245 75.3544 7.67615 74.517 7.67615C73.5483 7.67615 72.793 8.00454 72.2511 8.66133C71.7257 9.31811 71.463 10.3033 71.463 11.6168C71.463 12.8976 71.7257 13.8499 72.2511 14.4738C72.793 15.0978 73.5975 15.4098 74.6648 15.4098C75.2559 15.4098 75.7649 15.3112 76.1918 15.1142C76.6187 14.9172 76.9389 14.597 77.1524 14.1537H80.6251C80.2146 15.3687 79.5086 16.3292 78.507 17.0353C77.5218 17.7249 76.2493 18.0697 74.6894 18.0697Z" fill="black"/>
<path d="M82.921 17.8234V0.090332H86.6154V17.8234H82.921Z" fill="black"/>
<path d="M97.4654 17.8234C97.3669 17.4622 97.293 17.0763 97.2437 16.6658C97.2109 16.2554 97.1945 15.7792 97.1945 15.2373H97.0959V9.30169C97.0959 8.79268 96.9235 8.39861 96.5787 8.11948C96.2503 7.82393 95.7578 7.67615 95.101 7.67615C94.477 7.67615 93.9762 7.78288 93.5986 7.99634C93.2374 8.20979 92.9993 8.52176 92.8843 8.93225H89.3624C89.5265 7.7993 90.1094 6.86339 91.111 6.12451C92.1126 5.38563 93.4837 5.01619 95.2241 5.01619C97.0303 5.01619 98.4095 5.41847 99.3618 6.22303C100.314 7.02758 100.79 8.18516 100.79 9.69576V15.2373C100.79 15.6478 100.815 16.0665 100.864 16.4934C100.93 16.9039 101.028 17.3473 101.16 17.8234H97.4654ZM93.0814 18.0697C91.8335 18.0697 90.8401 17.7577 90.1012 17.1338C89.3623 16.4934 88.9929 15.6478 88.9929 14.597C88.9929 13.4312 89.428 12.4953 90.2983 11.7892C91.1849 11.0668 92.4164 10.5988 93.9927 10.3854L97.6624 9.86816V12.0109L94.6084 12.4789C93.9516 12.5774 93.4672 12.758 93.1553 13.0207C92.8433 13.2834 92.6873 13.6447 92.6873 14.1044C92.6873 14.5149 92.8351 14.8269 93.1306 15.0403C93.4262 15.2538 93.8202 15.3605 94.3128 15.3605C95.0846 15.3605 95.7413 15.1552 96.2832 14.7448C96.825 14.3179 97.0959 13.8253 97.0959 13.267L97.4408 15.2373C97.0795 16.1733 96.5295 16.8793 95.7906 17.3555C95.0517 17.8316 94.1486 18.0697 93.0814 18.0697Z" fill="black"/>
<path d="M111.29 18.0697C110.091 18.0697 109.114 17.7906 108.359 17.2323C107.62 16.6741 107.185 15.9105 107.053 14.9418L107.25 14.9172V17.8234H103.63V0.090332H107.324V8.04559L107.103 7.99634C107.283 7.07684 107.759 6.35438 108.531 5.82896C109.319 5.28711 110.304 5.01619 111.487 5.01619C112.62 5.01619 113.596 5.28711 114.417 5.82896C115.255 6.35438 115.895 7.10147 116.339 8.07022C116.798 9.03897 117.028 10.1801 117.028 11.4937C117.028 12.8237 116.79 13.9813 116.314 14.9664C115.838 15.9516 115.173 16.7151 114.319 17.2569C113.465 17.7988 112.455 18.0697 111.29 18.0697ZM110.255 15.1142C111.125 15.1142 111.831 14.8022 112.373 14.1783C112.915 13.5543 113.186 12.6677 113.186 11.5183C113.186 10.369 112.907 9.49051 112.349 8.88299C111.807 8.27547 111.093 7.97171 110.206 7.97171C109.352 7.97171 108.646 8.28368 108.088 8.90762C107.546 9.51514 107.275 10.3936 107.275 11.543C107.275 12.6923 107.546 13.579 108.088 14.2029C108.646 14.8104 109.368 15.1142 110.255 15.1142Z" fill="black"/>
<path d="M118.253 17.8234V13.7596H122.317V17.8234H118.253Z" fill="black"/>
<path d="M130.148 18.0697C128.835 18.0697 127.677 17.7906 126.676 17.2323C125.674 16.6741 124.886 15.9023 124.311 14.9172C123.753 13.932 123.474 12.8073 123.474 11.543C123.474 10.2786 123.753 9.15391 124.311 8.16874C124.886 7.18357 125.674 6.41185 126.676 5.85359C127.677 5.29532 128.835 5.01619 130.148 5.01619C131.248 5.01619 132.234 5.22143 133.104 5.63192C133.99 6.02599 134.713 6.57605 135.271 7.28208C135.846 7.98812 136.215 8.81731 136.379 9.76964H132.808C132.628 9.16212 132.299 8.70237 131.823 8.3904C131.363 8.07843 130.821 7.92245 130.198 7.92245C129.606 7.92245 129.089 8.07022 128.646 8.36577C128.219 8.66133 127.891 9.08002 127.661 9.62187C127.431 10.1637 127.316 10.8041 127.316 11.543C127.316 12.2818 127.431 12.9222 127.661 13.464C127.891 14.0059 128.219 14.4246 128.646 14.7201C129.089 15.0157 129.606 15.1635 130.198 15.1635C130.821 15.1635 131.363 15.0075 131.823 14.6955C132.299 14.3835 132.628 13.9238 132.808 13.3163H136.379C136.215 14.2686 135.846 15.0978 135.271 15.8038C134.713 16.5099 133.99 17.0681 133.104 17.4786C132.234 17.8727 131.248 18.0697 130.148 18.0697Z" fill="black"/>
<path d="M145.954 17.8234C145.856 17.4622 145.782 17.0763 145.733 16.6658C145.7 16.2554 145.683 15.7792 145.683 15.2373H145.585V9.30169C145.585 8.79268 145.412 8.39861 145.068 8.11948C144.739 7.82393 144.247 7.67615 143.59 7.67615C142.966 7.67615 142.465 7.78288 142.088 7.99634C141.726 8.20979 141.488 8.52176 141.373 8.93225H137.851C138.015 7.7993 138.598 6.86339 139.6 6.12451C140.602 5.38563 141.973 5.01619 143.713 5.01619C145.519 5.01619 146.898 5.41847 147.851 6.22303C148.803 7.02758 149.279 8.18516 149.279 9.69576V15.2373C149.279 15.6478 149.304 16.0665 149.353 16.4934C149.419 16.9039 149.517 17.3473 149.649 17.8234H145.954ZM141.57 18.0697C140.322 18.0697 139.329 17.7577 138.59 17.1338C137.851 16.4934 137.482 15.6478 137.482 14.597C137.482 13.4312 137.917 12.4953 138.787 11.7892C139.674 11.0668 140.905 10.5988 142.482 10.3854L146.151 9.86816V12.0109L143.097 12.4789C142.441 12.5774 141.956 12.758 141.644 13.0207C141.332 13.2834 141.176 13.6447 141.176 14.1044C141.176 14.5149 141.324 14.8269 141.62 15.0403C141.915 15.2538 142.309 15.3605 142.802 15.3605C143.573 15.3605 144.23 15.1552 144.772 14.7448C145.314 14.3179 145.585 13.8253 145.585 13.267L145.93 15.2373C145.568 16.1733 145.018 16.8793 144.28 17.3555C143.541 17.8316 142.638 18.0697 141.57 18.0697Z" fill="black"/>
</svg>
