<svg width="1500" height="236" viewBox="0 0 1500 236" fill="none" xmlns="http://www.w3.org/2000/svg">
<path d="M152.305 50.7783C151.881 58.8186 148.961 65.5472 143.545 70.9638C138.128 76.3805 130.13 80.443 119.551 83.1513C109.056 85.8596 95.7682 87.2138 79.6874 87.2138C67.4153 87.2138 56.4127 86.5367 46.6797 85.1826C36.9466 83.913 28.6523 81.7125 21.7969 78.581C14.9414 75.3649 9.694 71.0061 6.05468 65.5048C2.41536 60.0035 0.595703 53.0634 0.595703 44.6845C0.595703 36.3056 2.41536 29.3232 6.05468 23.7373C9.694 18.0667 14.9414 13.581 21.7969 10.2803C28.6523 6.89485 36.9466 4.48274 46.6797 3.04394C56.4127 1.60514 67.4153 0.88574 79.6874 0.88574C95.7682 0.88574 109.098 2.36686 119.678 5.3291C130.257 8.2067 138.255 12.4808 143.672 18.1514C149.088 23.8219 152.008 30.7197 152.432 38.8447H119.424C118.408 36.1364 116.546 33.7666 113.838 31.7353C111.129 29.6194 107.067 27.9691 101.65 26.7842C96.2337 25.5993 88.9127 25.0068 79.6874 25.0068C68.8541 25.0068 60.052 25.6839 53.2812 27.0381C46.5104 28.3076 41.5592 30.3812 38.4277 33.2588C35.2962 36.1364 33.7304 39.945 33.7304 44.6845C33.7304 49.0009 35.2962 52.5133 38.4277 55.2216C41.5592 57.93 46.5104 59.9189 53.2812 61.1884C60.052 62.458 68.8541 63.0927 79.6874 63.0927C88.9127 63.0927 96.1913 62.5426 101.523 61.4423C106.94 60.3421 111.003 58.861 113.711 56.999C116.419 55.0524 118.281 52.9788 119.297 50.7783H152.305Z" fill="white" fill-opacity="0.1"/>
<path d="M283.118 38.3369V3.4248H314.856V44.0498C314.856 51.2438 313.502 57.3798 310.794 62.458C308.17 67.4514 304.488 71.5986 299.749 74.8994C295.009 78.1155 289.55 80.6122 283.372 82.3896C277.193 84.1669 270.549 85.3941 263.44 86.0712C256.415 86.8329 249.264 87.2138 241.985 87.2138C234.283 87.2138 226.835 86.8329 219.641 86.0712C212.447 85.3941 205.761 84.1669 199.583 82.3896C193.489 80.6122 188.157 78.1155 183.587 74.8994C179.016 71.5986 175.419 67.4514 172.796 62.458C170.257 57.3798 168.987 51.2438 168.987 44.0498V3.4248H200.725V38.3369C200.725 45.1077 202.376 50.2705 205.676 53.8252C208.977 57.3798 213.674 59.8343 219.768 61.1884C225.947 62.458 233.352 63.0927 241.985 63.0927C250.364 63.0927 257.643 62.458 263.821 61.1884C269.999 59.8343 274.739 57.3798 278.04 53.8252C281.425 50.2705 283.118 45.1077 283.118 38.3369Z" fill="white" fill-opacity="0.1"/>
<path d="M332.637 84.6747V3.4248H430.772C438.474 3.4248 445.372 4.31347 451.465 6.09082C457.644 7.78352 462.51 10.6611 466.065 14.7236C469.704 18.7861 471.524 24.3297 471.524 31.3545C471.524 36.0094 470.678 39.8603 468.985 42.9072C467.292 45.9541 464.965 48.3239 462.003 50.0166C459.04 51.7093 455.655 52.9365 451.846 53.6982C448.038 54.4599 444.06 54.9254 439.913 55.0947L430.645 53.3173C440.717 53.402 448.461 53.8252 453.878 54.5869C459.379 55.3486 463.187 56.7451 465.303 58.7763C467.504 60.7229 468.604 63.5582 468.604 67.2822V84.6747H436.866V71.0908C436.866 68.5517 436.358 66.6474 435.342 65.3779C434.411 64.0237 432.296 63.0927 428.995 62.5849C425.779 62.0771 420.785 61.8232 414.014 61.8232H364.376V84.6747H332.637ZM364.376 40.622H430.772C433.311 40.622 435.427 40.1989 437.12 39.3525C438.897 38.5062 439.786 36.8981 439.786 34.5283C439.786 32.3278 438.897 30.8467 437.12 30.0849C435.427 29.2386 433.311 28.8154 430.772 28.8154H364.376V40.622Z" fill="white" fill-opacity="0.1"/>
<path d="M491.001 3.4248H522.74V84.6747H491.001V3.4248Z" fill="white" fill-opacity="0.1"/>
<path d="M617.944 87.2138C599.494 87.2138 584.64 85.6057 573.384 82.3896C562.127 79.0888 553.918 74.2646 548.755 67.9169C543.677 61.4847 541.138 53.5289 541.138 44.0498C541.138 34.5706 543.677 26.6572 548.755 20.3096C553.918 13.8773 562.127 9.05305 573.384 5.83691C584.64 2.53613 599.494 0.88574 617.944 0.88574C636.395 0.88574 651.249 2.53613 662.505 5.83691C673.762 9.05305 681.929 13.8773 687.007 20.3096C692.17 26.6572 694.751 34.5706 694.751 44.0498C694.751 53.5289 692.17 61.4847 687.007 67.9169C681.929 74.2646 673.762 79.0888 662.505 82.3896C651.249 85.6057 636.395 87.2138 617.944 87.2138ZM617.944 63.0927C626.662 63.0927 634.194 62.5849 640.542 61.5693C646.89 60.469 651.799 58.5647 655.269 55.8564C658.739 53.0634 660.474 49.1279 660.474 44.0498C660.474 38.9716 658.739 35.0784 655.269 32.3701C651.799 29.5771 646.89 27.6728 640.542 26.6572C634.194 25.5569 626.662 25.0068 617.944 25.0068C609.227 25.0068 601.568 25.5569 594.966 26.6572C588.449 27.6728 583.329 29.5771 579.605 32.3701C575.965 35.0784 574.146 38.9716 574.146 44.0498C574.146 49.1279 575.965 53.0634 579.605 55.8564C583.329 58.5647 588.449 60.469 594.966 61.5693C601.568 62.5849 609.227 63.0927 617.944 63.0927Z" fill="white" fill-opacity="0.1"/>
<path d="M706.821 54.8408H741.48C742.072 56.6181 743.807 58.1416 746.685 59.4111C749.562 60.596 753.413 61.527 758.237 62.2041C763.146 62.7965 768.817 63.0927 775.249 63.0927C781.597 63.0927 786.59 62.9235 790.23 62.5849C793.954 62.1617 796.577 61.4847 798.101 60.5537C799.624 59.538 800.386 58.1839 800.386 56.4912C800.386 54.8831 799.159 53.6559 796.704 52.8095C794.25 51.8785 789.891 51.2438 783.628 50.9052C777.365 50.5667 768.563 50.3974 757.222 50.3974C748.758 50.3974 741.437 50.0166 735.259 49.2548C729.165 48.4085 724.129 47.139 720.152 45.4463C716.258 43.6689 713.381 41.4684 711.519 38.8447C709.657 36.1364 708.726 32.9202 708.726 29.1963C708.726 22.764 710.884 17.4743 715.2 13.3271C719.601 9.09537 726.203 5.96386 735.005 3.93261C743.892 1.81673 754.979 0.758789 768.267 0.758789C787.733 0.758789 802.586 3.59407 812.827 9.26464C823.153 14.8506 828.316 22.9333 828.316 33.5127H795.435C795.012 30.7197 792.388 28.6038 787.564 27.165C782.739 25.6416 775.884 24.8799 766.997 24.8799C758.195 24.8799 751.636 25.3877 747.32 26.4033C743.088 27.4189 740.972 29.1539 740.972 31.6084C740.972 32.8779 741.564 33.8935 742.749 34.6552C743.934 35.417 745.965 36.0517 748.843 36.5595C751.805 36.9827 755.952 37.2789 761.284 37.4482C766.616 37.6175 773.387 37.7021 781.597 37.7021C790.653 37.7021 798.355 38.1676 804.702 39.0986C811.05 39.945 816.17 41.2568 820.064 43.0341C824.041 44.8115 826.919 47.0966 828.696 49.8896C830.474 52.5979 831.362 55.8141 831.362 59.538C831.362 65.9703 829.331 71.2177 825.269 75.2802C821.206 79.3427 814.774 82.3473 805.972 84.2939C797.17 86.2405 785.659 87.2138 771.441 87.2138C763.4 87.2138 755.995 86.7483 749.224 85.8173C742.538 84.8863 736.571 83.5322 731.323 81.7548C726.076 79.8928 721.633 77.65 717.993 75.0263C714.354 72.318 711.561 69.3134 709.614 66.0126C707.752 62.6272 706.821 58.9033 706.821 54.8408Z" fill="white" fill-opacity="0.1"/>
<path d="M847.189 3.4248H878.927V84.6747H847.189V3.4248Z" fill="white" fill-opacity="0.1"/>
<path d="M893.517 3.4248H1025.55V27.5459H893.517V3.4248ZM943.663 25.8955H975.402V84.6747H943.663V25.8955Z" fill="white" fill-opacity="0.1"/>
<path d="M1165.75 3.4248L1114.34 63.9814V84.6747H1082.6V63.9814L1031.18 3.4248H1068.63L1110.4 56.1103H1086.91L1128.3 3.4248H1165.75Z" fill="white" fill-opacity="0.1"/>
<path d="M1304.75 3.4248H1345.38L1288.25 51.667L1286.98 52.6826L1250.16 84.6747H1209.54L1269.2 34.6552L1270.09 33.8935L1304.75 3.4248ZM1251.43 3.4248L1287.1 34.7822L1287.87 35.5439L1346.64 84.6747H1306.02L1267.68 51.54L1267.17 51.0322L1210.81 3.4248H1251.43Z" fill="white" fill-opacity="0.1"/>
<path d="M1359.3 84.6747V3.4248H1457.43C1465.13 3.4248 1472.03 4.31347 1478.12 6.09082C1484.3 7.78352 1489.17 10.6611 1492.72 14.7236C1496.36 18.7861 1498.18 24.3297 1498.18 31.3545C1498.18 36.0094 1497.34 39.8603 1495.64 42.9072C1493.95 45.9541 1491.62 48.3239 1488.66 50.0166C1485.7 51.7093 1482.31 52.9365 1478.5 53.6982C1474.7 54.4599 1470.72 54.9254 1466.57 55.0947L1457.3 53.3173C1467.37 53.402 1475.12 53.8252 1480.54 54.5869C1486.04 55.3486 1489.85 56.7451 1491.96 58.7763C1494.16 60.7229 1495.26 63.5582 1495.26 67.2822V84.6747H1463.52V71.0908C1463.52 68.5517 1463.02 66.6474 1462 65.3779C1461.07 64.0237 1458.95 63.0927 1455.65 62.5849C1452.44 62.0771 1447.44 61.8232 1440.67 61.8232H1391.03V84.6747H1359.3ZM1391.03 40.622H1457.43C1459.97 40.622 1462.09 40.1989 1463.78 39.3525C1465.56 38.5062 1466.44 36.8981 1466.44 34.5283C1466.44 32.3278 1465.56 30.8467 1463.78 30.0849C1462.09 29.2386 1459.97 28.8154 1457.43 28.8154H1391.03V40.622Z" fill="white" fill-opacity="0.1"/>
<path d="M3.17415 132.121H47.036V146.742H19.2568V173.79H41.334V188.41H19.2568V219.845H47.036V234.465H3.17415V132.121Z" fill="white" fill-opacity="0.1"/>
<path d="M70.7557 182.123L53.0647 132.121H70.0246L80.8439 165.164H81.1363L92.248 132.121H107.453L89.7625 182.123L108.331 234.465H91.3708L79.6743 198.791H79.3818L67.3929 234.465H52.1875L70.7557 182.123Z" fill="white" fill-opacity="0.1"/>
<path d="M115.97 132.121H139.655C147.648 132.121 153.642 134.265 157.639 138.554C161.635 142.843 163.633 149.13 163.633 157.415V167.503C163.633 175.788 161.635 182.075 157.639 186.363C153.642 190.652 147.648 192.796 139.655 192.796H132.053V234.465H115.97V132.121ZM139.655 178.176C142.287 178.176 144.236 177.445 145.504 175.983C146.868 174.521 147.55 172.035 147.55 168.526V156.391C147.55 152.882 146.868 150.397 145.504 148.935C144.236 147.473 142.287 146.742 139.655 146.742H132.053V178.176H139.655Z" fill="white" fill-opacity="0.1"/>
<path d="M172.368 132.121H216.23V146.742H188.451V173.79H210.528V188.41H188.451V219.845H216.23V234.465H172.368V132.121Z" fill="white" fill-opacity="0.1"/>
<path d="M225.482 132.121H249.313C257.598 132.121 263.642 134.07 267.443 137.969C271.244 141.771 273.145 147.668 273.145 155.66V161.947C273.145 172.571 269.636 179.297 262.618 182.123V182.416C266.517 183.586 269.246 185.974 270.806 189.58C272.463 193.186 273.291 198.011 273.291 204.054V222.038C273.291 224.962 273.389 227.35 273.584 229.202C273.779 230.956 274.266 232.711 275.046 234.465H258.671C258.086 232.808 257.696 231.249 257.501 229.787C257.306 228.325 257.209 225.693 257.209 221.892V203.177C257.209 198.499 256.429 195.233 254.869 193.381C253.407 191.529 250.824 190.603 247.12 190.603H241.564V234.465H225.482V132.121ZM247.413 175.983C250.629 175.983 253.017 175.154 254.577 173.497C256.234 171.84 257.062 169.062 257.062 165.164V157.268C257.062 153.565 256.38 150.884 255.015 149.227C253.748 147.57 251.701 146.742 248.875 146.742H241.564V175.983H247.413Z" fill="white" fill-opacity="0.1"/>
<path d="M284.45 132.121H300.532V234.465H284.45V132.121Z" fill="white" fill-opacity="0.1"/>
<path d="M312.577 132.121H356.439V146.742H328.66V173.79H350.737V188.41H328.66V219.845H356.439V234.465H312.577V132.121Z" fill="white" fill-opacity="0.1"/>
<path d="M365.691 132.121H385.868L401.512 193.381H401.804V132.121H416.132V234.465H399.611L380.312 159.754H380.019V234.465H365.691V132.121Z" fill="white" fill-opacity="0.1"/>
<path d="M450.748 235.927C443.048 235.927 437.151 233.734 433.057 229.348C429.061 224.962 427.062 218.772 427.062 210.78V155.806C427.062 147.814 429.061 141.624 433.057 137.238C437.151 132.852 443.048 130.659 450.748 130.659C458.448 130.659 464.296 132.852 468.293 137.238C472.386 141.624 474.433 147.814 474.433 155.806V166.626H459.228V154.783C459.228 148.447 456.547 145.279 451.186 145.279C445.826 145.279 443.145 148.447 443.145 154.783V211.95C443.145 218.188 445.826 221.307 451.186 221.307C456.547 221.307 459.228 218.188 459.228 211.95V196.305H474.433V210.78C474.433 218.772 472.386 224.962 468.293 229.348C464.296 233.734 458.448 235.927 450.748 235.927Z" fill="white" fill-opacity="0.1"/>
<path d="M484.055 132.121H527.917V146.742H500.138V173.79H522.215V188.41H500.138V219.845H527.917V234.465H484.055V132.121Z" fill="white" fill-opacity="0.1"/>
<path d="M560.585 132.121H576.668V219.845H603.131V234.465H560.585V132.121Z" fill="white" fill-opacity="0.1"/>
<path d="M610.844 132.121H654.706V146.742H626.926V173.79H649.003V188.41H626.926V219.845H654.706V234.465H610.844V132.121Z" fill="white" fill-opacity="0.1"/>
<path d="M676.385 132.121H698.17L714.837 234.465H698.755L695.831 214.143V214.435H677.555L674.631 234.465H659.718L676.385 132.121ZM693.93 200.545L686.766 149.958H686.473L679.455 200.545H693.93Z" fill="white" fill-opacity="0.1"/>
<path d="M722.64 132.121H746.472C754.757 132.121 760.8 134.07 764.601 137.969C768.402 141.771 770.303 147.668 770.303 155.66V161.947C770.303 172.571 766.794 179.297 759.776 182.123V182.416C763.675 183.586 766.404 185.974 767.964 189.58C769.621 193.186 770.449 198.011 770.449 204.054V222.038C770.449 224.962 770.547 227.35 770.742 229.202C770.937 230.956 771.424 232.711 772.204 234.465H755.829C755.244 232.808 754.854 231.249 754.659 229.787C754.464 228.325 754.367 225.693 754.367 221.892V203.177C754.367 198.499 753.587 195.233 752.027 193.381C750.565 191.529 747.982 190.603 744.279 190.603H738.723V234.465H722.64V132.121ZM744.571 175.983C747.787 175.983 750.175 175.154 751.735 173.497C753.392 171.84 754.221 169.062 754.221 165.164V157.268C754.221 153.565 753.538 150.884 752.174 149.227C750.907 147.57 748.86 146.742 746.033 146.742H738.723V175.983H744.571Z" fill="white" fill-opacity="0.1"/>
<path d="M781.608 132.121H801.784L817.428 193.381H817.721V132.121H832.049V234.465H815.528L796.229 159.754H795.936V234.465H781.608V132.121Z" fill="white" fill-opacity="0.1"/>
<path d="M844.003 132.121H860.085V234.465H844.003V132.121Z" fill="white" fill-opacity="0.1"/>
<path d="M872.13 132.121H892.307L907.951 193.381H908.243V132.121H922.571V234.465H906.05L886.751 159.754H886.458V234.465H872.13V132.121Z" fill="white" fill-opacity="0.1"/>
<path d="M957.333 235.927C949.535 235.927 943.59 233.734 939.496 229.348C935.402 224.864 933.355 218.48 933.355 210.195V156.391C933.355 148.106 935.402 141.771 939.496 137.384C943.59 132.901 949.535 130.659 957.333 130.659C965.131 130.659 971.076 132.901 975.17 137.384C979.264 141.771 981.311 148.106 981.311 156.391V165.164H966.105V155.368C966.105 148.642 963.327 145.279 957.772 145.279C952.216 145.279 949.438 148.642 949.438 155.368V211.365C949.438 217.993 952.216 221.307 957.772 221.307C963.327 221.307 966.105 217.993 966.105 211.365V191.334H958.064V176.714H981.311V210.195C981.311 218.48 979.264 224.864 975.17 229.348C971.076 233.734 965.131 235.927 957.333 235.927Z" fill="white" fill-opacity="0.1"/>
<path d="M1015.05 132.121H1031.14V219.845H1057.6V234.465H1015.05V132.121Z" fill="white" fill-opacity="0.1"/>
<path d="M1065.31 132.121H1081.39V234.465H1065.31V132.121Z" fill="white" fill-opacity="0.1"/>
<path d="M1093.44 132.121H1109.52V175.252L1129.99 132.121H1146.07L1126.92 169.696L1146.36 234.465H1129.55L1115.95 188.849L1109.52 201.861V234.465H1093.44V132.121Z" fill="white" fill-opacity="0.1"/>
<path d="M1153.98 132.121H1197.84V146.742H1170.06V173.79H1192.14V188.41H1170.06V219.845H1197.84V234.465H1153.98V132.121Z" fill="white" fill-opacity="0.1"/>
<path d="M1230.51 132.121H1253.46L1263.7 205.37H1263.99L1274.22 132.121H1297.18V234.465H1281.97V156.976H1281.68L1269.98 234.465H1256.53L1244.83 156.976H1244.54V234.465H1230.51V132.121Z" fill="white" fill-opacity="0.1"/>
<path d="M1321.61 132.121H1343.39L1360.06 234.465H1343.98L1341.05 214.143V214.435H1322.78L1319.85 234.465H1304.94L1321.61 132.121ZM1339.15 200.545L1331.99 149.958H1331.69L1324.68 200.545H1339.15Z" fill="white" fill-opacity="0.1"/>
<path d="M1390.38 235.927C1382.59 235.927 1376.64 233.734 1372.55 229.348C1368.45 224.864 1366.41 218.48 1366.41 210.195V156.391C1366.41 148.106 1368.45 141.771 1372.55 137.384C1376.64 132.901 1382.59 130.659 1390.38 130.659C1398.18 130.659 1404.13 132.901 1408.22 137.384C1412.31 141.771 1414.36 148.106 1414.36 156.391V165.164H1399.16V155.368C1399.16 148.642 1396.38 145.279 1390.82 145.279C1385.27 145.279 1382.49 148.642 1382.49 155.368V211.365C1382.49 217.993 1385.27 221.307 1390.82 221.307C1396.38 221.307 1399.16 217.993 1399.16 211.365V191.334H1391.11V176.714H1414.36V210.195C1414.36 218.48 1412.31 224.864 1408.22 229.348C1404.13 233.734 1398.18 235.927 1390.38 235.927Z" fill="white" fill-opacity="0.1"/>
<path d="M1424.69 132.121H1440.77V234.465H1424.69V132.121Z" fill="white" fill-opacity="0.1"/>
<path d="M1475.48 235.927C1467.78 235.927 1461.88 233.734 1457.79 229.348C1453.79 224.962 1451.79 218.772 1451.79 210.78V155.806C1451.79 147.814 1453.79 141.624 1457.79 137.238C1461.88 132.852 1467.78 130.659 1475.48 130.659C1483.18 130.659 1489.02 132.852 1493.02 137.238C1497.11 141.624 1499.16 147.814 1499.16 155.806V166.626H1483.96V154.783C1483.96 148.447 1481.28 145.279 1475.91 145.279C1470.55 145.279 1467.87 148.447 1467.87 154.783V211.95C1467.87 218.188 1470.55 221.307 1475.91 221.307C1481.28 221.307 1483.96 218.188 1483.96 211.95V196.305H1499.16V210.78C1499.16 218.772 1497.11 224.962 1493.02 229.348C1489.02 233.734 1483.18 235.927 1475.48 235.927Z" fill="white" fill-opacity="0.1"/>
</svg>
